<?xml version="1.0" encoding="utf-8"?>
<!-- Generator: Adobe Illustrator 18.1.1, SVG Export Plug-In . SVG Version: 6.00 Build 0)  -->
<svg version="1.1" id="Layer_1" xmlns="http://www.w3.org/2000/svg" xmlns:xlink="http://www.w3.org/1999/xlink" x="0px" y="0px"
	 viewBox="0 0 640 480" enable-background="new 0 0 640 480" xml:space="preserve">
<g>
	<g>
		<g>
			<path fill="#78A22F" d="M441.7,242.5c-0.7,0-1.2,0-1.6,0c-0.4,0-0.9,0.1-1.5,0.2l-0.4,0.1H438c-0.2,0.1-0.4,0.1-0.6,0.1
				c-0.2,0-0.4,0-0.6,0.1l0.2-0.1c-1.5,0.2-2.7,0.4-3.5,0.5c-0.8,0.1-1.4,0.1-1.9,0.1c-0.8,0-1.5-0.2-2.2-0.5
				c-0.3-0.2-0.5-0.4-0.6-0.6c-0.1-0.1-0.2-0.4-0.2-0.6c0-0.1,0.1-0.3,0.2-0.6c0.1-0.2,0.3-0.4,0.5-0.6c0.1-0.1,0.2-0.2,0.3-0.4
				c0.6-0.6,1.5-1.1,2.6-1.4c1.1-0.3,2.9-0.5,5.2-0.5h2.2c0.5,0,0.8-0.1,1.1-0.1c0.2,0,0.5-0.1,0.7-0.1c0.2,0,0.5,0,0.8-0.1
				c0,0,0.1,0,0.2,0s0.2,0,0.3-0.1c0.4,0,0.7-0.1,1-0.1c0.3,0,0.4,0,0.3,0c0.1,0,0.3,0,0.4-0.1h0.3c0.5,0,1,0.1,1.4,0.3
				c0.4,0.2,0.6,0.6,0.6,1.1v0.2c0,0.1-0.1,0.3-0.1,0.4c0,1-0.5,1.5-1.6,1.7c-0.3,0.3-0.7,0.5-1.1,0.6
				C443.2,242.4,442.5,242.5,441.7,242.5z M445,241.4c0,0.1-0.1,0.1-0.1,0.1l-0.1,0.1l0.1-0.1C444.9,241.5,444.9,241.5,445,241.4z"
				/>
		</g>
	</g>
	<g>
		<path fill="#86A315" d="M212.9,282.2L212.9,282.2c-30.6-1.6-43.4-35.6-43.4-35.6s17.2,28.3,40.1,30.1
			c4.3-47.4-55.5-45.8-43.4-76.9c-8.4,9.9-13.5,22.8-13.5,36.8c0,31.6,25.6,57.1,57.1,57.1c26,0,47.9-17.3,54.8-41
			C256.7,271.7,229.6,283.7,212.9,282.2z"/>
		<path fill="#8D7E74" d="M235,200.2c-4.1-1.3-20.4-1.8-24.3-4.7c-3-2.2-8-10.9-15.1-10.5c-9.4,0.6-22.3,4.9-27,12.6
			c-4.4,12.8,3.6,19.9,14,27.5c4.8-3.6,6.7-16.6,3.7-28.2c7,17.1,2.3,26.9-0.4,30.6c6.6,4.8,13.6,9.9,18.9,16.9
			c-0.3-4.3-0.8-8.2-1-11.1c-0.8-11.7,8.9-9.8,23.9-14.8C238.2,215,239.1,201.6,235,200.2z"/>
		<path fill="#8D7E74" d="M252.6,203.2l-3,8.4c0,0-7,0.2-10.4,3.6c-3.4,3.3-1.2,7.8-8.4,12.2c0,0,0.8,4.5,6.7,6.4
			c5.2,1.7,7.5-2.2,10.6-2.2c0.9,5.8-3.2,14.4-11.3,21.6l0,0c-5.4,4-11.3,9.7-14.2,15.9c-1.1-8.8-4.7-14.9-4.6-20.4
			c0-1.4,0.2-2.7,0.6-4.2c1-2.8,2.2-3.2,3.9-3.3c1.2,0,2.6,0.5,3.5,1.4c1,0.9,1.5,1.9,1.5,3.2c0,0.7-0.2,1.5-0.7,2.4
			c-0.7,1.4-0.2,3.1,1.2,3.8c1.4,0.7,3.1,0.2,3.8-1.2v0c0.9-1.7,1.3-3.4,1.3-5c0-3-1.4-5.7-3.4-7.4c-2-1.7-4.6-2.8-7.3-2.8
			c-3.8-0.1-7.9,2.5-9.3,7.3c-0.6,2-0.9,4-0.9,5.9c0.2,8.9,5,15.4,4.9,24.8c0,0.8,0,1.6-0.1,2.5c0,0.2,0,0.3,0,0.5
			c1.2,0,2.4-0.1,3.6-0.2c0,0,0,0,0,0c0.3,0,0.7-0.1,1-0.1c0.3,0,0.7-0.1,1-0.1c0,0,0,0,0,0c15.7-2,35.4-12.5,42.6-27.8
			C269.9,224.1,261,209.2,252.6,203.2z"/>
		<path fill="#86A315" d="M167.3,285.4c-5.2-23.7-36-22-49.3-11.6c11.9-4.3,23.3,25.1,47.1,15.4c-0.5-5.9-19.9-16.6-27-16.6
			C146.4,271.5,164,280.9,167.3,285.4z"/>
	</g>
	<g>
		<path fill="#78A22F" d="M303.8,257.8c0.2-0.2,0.4-0.4,0.5-0.6c0.7-0.9,1.5-2.1,2.5-3.4c1-1.3,2-2.8,3.2-4.5c-0.2,0-0.4,0-0.5-0.1
			c-0.1,0-0.3-0.1-0.5-0.1c-0.2,0-0.4,0-0.5-0.1h0.1c-0.7-0.1-1.2-0.5-1.7-1.2c-0.5-0.7-0.7-1.4-0.7-2.1c0-1.1,0.4-1.9,1.2-2.5
			l-0.1,0.1l2.7-2l-0.3,0.2c0.4-0.4,0.8-0.6,1.3-0.7c0.5-0.1,1-0.2,1.6-0.2c0.5,0,1.2,0.1,2,0.2c0-0.1,0.1-0.2,0.1-0.3
			c0-0.1,0-0.2,0.1-0.3l0.1-0.4c0-0.2,0-0.4,0.1-0.6c0-0.2,0.1-0.3,0.1-0.5v-0.4c0-0.4,0.3-0.9,0.7-1.4c0.4-0.6,0.9-1.1,1.4-1.7
			c0.5-0.5,1.1-1,1.6-1.4c0.5-0.4,0.9-0.7,1.2-0.7c0,0,0.1,0,0.1,0c0,0,0.1,0,0.1,0l-0.5,0.1c0.2,0,0.4-0.1,0.6-0.1
			c0.2,0,0.4,0,0.6,0c2.3,0,3.4,1.2,3.4,3.6c0,0.4,0,0.7-0.1,1.1c-0.1,0.4-0.2,0.8-0.2,1.2l5.2-2.5c0.7-0.4,1.3-0.7,1.9-1
			s0.9-0.5,1-0.6c1-1.1,1.5-1.9,1.5-2.5c0-0.7-0.5-1.1-1.6-1.5c-3.6-1-7.2-1.5-10.8-1.5c-1.5,0-3.2,0.1-5.1,0.2h0.1
			c-1,0.2-1.7,0.3-2,0.4s-0.5,0.1-0.6,0.2c-0.2,0.4-0.4,0.8-0.6,1.3l-0.1,0.1l0.1-0.1c-0.2,0.5-0.7,0.8-1.3,1.1
			c-0.6,0.3-1.3,0.4-2.1,0.4h-1.6c-1.5-0.3-2.2-1.1-2.2-2.3c0-0.3,0.1-0.7,0.3-1.1c0-0.2,0.2-0.5,0.5-0.8c0.9-1.5,1.8-2.7,2.6-3.5
			c0.8-0.9,1.8-1.6,3-2.2l-0.1,0.1c1.2-0.7,2.7-1.1,4.5-1.5c1.8-0.3,4-0.5,6.8-0.6c0.1,0,0.3,0,0.5,0c0.2,0,0.5,0.1,0.7,0.2
			l-0.3-0.1c0.1,0,0.4,0.1,0.8,0.1c1.9,0.2,3.5,0.4,4.9,0.5c1.4,0.2,2.5,0.3,3.4,0.5c1.8,0.3,3.4,0.8,4.9,1.5
			c1.6,0.7,2.8,1.7,3.5,3.1c0.7,1.3,1.2,3.2,1.5,5.7c-0.4,0.4-0.7,0.9-1.1,1.4c-0.3,0.5-0.7,1-1.1,1.5v-0.1
			c-0.4,0.7-0.7,1.2-1.1,1.8c-0.4,0.5-0.7,1-1.1,1.4c-0.4,0.4-0.8,0.8-1.3,1.1c-0.5,0.3-1,0.6-1.6,0.9c-1.1,0.8-2.1,1.5-3,2
			c-0.9,0.5-2,1-3.1,1.5c-0.2,0.1-0.4,0.2-0.7,0.3c1.1,0.6,2,1.1,2.7,1.8c0.1,0.1,0.2,0.2,0.4,0.4c0.2,0.1,0.4,0.3,0.6,0.4l-0.2-0.1
			c0.5,0.3,1,0.6,1.3,0.9c0.4,0.3,0.7,0.5,1.1,0.8v-0.1c0.4,0.3,0.7,0.7,1.1,1.3s0.6,1.2,0.8,1.8c0.2,0.7,0.4,1.3,0.6,2
			c0.1,0.7,0.2,1.3,0.2,1.9c0,0.2,0,0.4-0.1,0.6v0.1c0,0.2-0.2,0.6-0.5,1.1c-0.3,0.5-0.6,1.1-1,1.7c-0.4,0.6-0.7,1.1-1,1.6
			c-0.3,0.5-0.5,0.8-0.7,0.9c-0.6,0.5-1.1,0.9-1.6,1.2c-0.5,0.3-1,0.6-1.4,0.9c-0.5,0.3-1,0.5-1.5,0.8c-0.5,0.2-1.1,0.5-1.8,0.8h0.1
			l-0.6,0.3l-1.8,0.3h-0.6c-0.5,0.1-1.2,0.3-2.1,0.4c-0.9,0.1-1.9,0.3-2.9,0.4c-1.1,0.1-2.1,0.3-3.2,0.4c-1.1,0.1-2,0.2-2.9,0.2
			h-0.8c-3.2-0.1-5.7-0.2-7.4-0.2c-0.9,0-1.9-0.1-2.9-0.3c-1-0.1-2-0.3-3.1-0.6l-0.6-0.6h-0.4c-0.3,0-0.6,0-0.7-0.1
			c-1.4-0.5-2.5-0.9-3.4-1.4c-0.9-0.5-1.6-1-2.2-1.5c-0.5-0.5-0.9-1.1-1.1-1.7c-0.2-0.6-0.3-1.2-0.3-1.9c0-0.6,0.2-1.2,0.5-1.9
			c0.3-0.7,0.7-1.4,1.2-2c0.5-0.6,1-1.2,1.5-1.6c0.5-0.4,1-0.7,1.4-0.7h0.1c0.2,0,0.5-0.1,0.8-0.1c0.3,0,0.6,0,0.8,0.1h0.5
			c0.2,0.2,0.4,0.5,0.8,1.1c0.3,0.5,0.5,1.1,0.6,1.6c0.1,0.7,0.2,1.1,0.2,1.3c0.8,0.6,2.2,1.1,4.1,1.5c0.1-0.2,0.2-0.4,0.4-0.5
			L303.8,257.8z M312.7,257.6c-0.2,0.3-0.5,0.6-0.7,0.9c-0.3,0.3-0.5,0.6-0.8,1c0.7,0.1,1.5,0.2,2.3,0.2c0.8,0,1.6,0.1,2.4,0.1
			c2.2,0,4.1-0.1,5.6-0.4c1.5-0.2,2.8-0.6,3.9-1.2c1-0.1,1.8-0.4,2.4-0.8c0.6-0.4,0.8-0.8,0.8-1.3c0,0,0-0.1-0.1-0.1
			c-0.4-0.9-0.8-1.7-1.4-2.4c-0.6-0.7-1.3-1.2-2.1-1.6c-0.9-0.4-1.9-0.7-3.1-1c-1.2-0.2-2.7-0.4-4.4-0.6c0.3,0.1-0.2,1.1-1.5,2.8
			L312.7,257.6z"/>
		<path fill="#78A22F" d="M339.6,254.4c0.2-0.3,0.5-0.8,0.8-1.4c0.3-0.6,0.7-1.3,1.1-2.1c0.4-0.8,0.7-1.6,1.1-2.5
			c0.4-0.9,0.7-1.7,1.1-2.6l0.3-0.6c-0.3-0.6-0.4-1.3-0.4-2.2c0.1-0.5,0.3-1,0.7-1.5c0.4-0.5,0.9-1,1.6-1.7c0.5-0.6,0.8-1,1-1.2
			l0.1-0.1c0.4-0.5,0.8-0.9,1.3-1.1c0.5-0.2,1.1-0.4,1.6-0.4c0.4,0,0.6,0,0.8,0.1c0.9,0.2,1.6,0.5,2,0.9c0.5,0.4,0.7,1.1,0.7,2.2
			c0,0.2,0,0.5-0.1,0.7c0,0.2-0.1,0.5-0.2,0.7c-0.2,1.1-0.4,2-0.6,2.5c-0.1,0.5-0.3,1.1-0.6,1.6c-0.2,0.5-0.5,1-0.7,1.6
			c-0.3,0.5-0.7,1.3-1.2,2.2c-0.2,0.4-0.6,1-1,1.8c-0.4,0.7-1,1.7-1.6,2.9c-1.3,2.4-2.4,4.4-3.3,5.8c-0.9,1.5-1.8,2.8-2.6,3.9
			c-0.2,0.3-0.6,0.6-0.9,0.9c-0.4,0.3-0.8,0.6-1.2,0.8c-0.4,0.3-0.9,0.5-1.3,0.7c-0.4,0.2-0.8,0.3-1.1,0.3c-0.4,0-0.7,0-0.8-0.1
			c-0.2,0-0.4-0.2-0.6-0.4c-0.4-0.3-0.7-0.6-0.7-0.9c-0.1-0.3-0.1-0.6-0.1-0.9c0-0.3,0-0.6,0.1-0.9c0.1-0.3,0.3-0.6,0.5-1.1l0.8-1.3
			c0.1-0.1,0.2-0.2,0.2-0.4c0-0.1,0.1-0.3,0.1-0.4c0.1-0.3,0.3-0.7,0.6-1.2c0.3-0.5,0.6-1.1,0.9-1.9c0.3-0.6,0.6-1.2,0.9-1.8
			c0.3-0.6,0.5-0.9,0.6-1.1L339.6,254.4z M357.9,224.7c0.9,0.7,1.4,1.7,1.4,3.1l-0.1,1.3c-0.1,1.2-0.5,2.1-1.2,2.9
			c-0.6,0.7-1.4,1.5-2.4,2.2c-0.7,0.7-1.4,1.1-2,1.1c-0.6,0-0.9-0.1-1.2-0.2c-0.2-0.1-0.5-0.4-0.7-0.8l-0.1-0.1
			c-0.4-0.6-0.6-1.2-0.7-1.9c-0.1-0.7-0.2-1.3-0.2-2c0-1.2,0.2-2.2,0.5-2.8c0.3-0.7,1-1.3,1.9-2h-0.1c0.5-0.4,1-0.7,1.5-0.9
			c0.5-0.2,1.1-0.4,1.6-0.4C356.9,224.1,357.4,224.3,357.9,224.7z"/>
		<path fill="#78A22F" d="M362.1,241.9c0.5,0,0.9-0.2,1.3-0.5l5.3-9.9c1.3-1.8,2.4-3.3,3.1-4.5c0.8-1.2,1.4-2.1,1.8-2.9
			s0.7-1.4,0.9-1.9c0.2-0.5,0.4-0.9,0.5-1.3l0.1-0.2c0.2-0.7,0.4-1.1,0.6-1.4c0.2-0.3,0.5-0.5,1-0.7c0.9-1.2,1.7-2.1,2.4-2.8
			c0.7-0.7,1.2-1.2,1.5-1.6c1.3-1.2,2.7-1.8,4.1-1.8c0.3,0,0.8,0.1,1.4,0.3c0.6,0.2,1.5,0.5,2.7,1.1c-0.2,0.7-0.5,1.7-0.8,2.8
			c-0.3,1.1-0.6,2.1-0.8,3.1l0.1-0.1c0,0.2-0.1,0.5-0.2,0.7s-0.1,0.4-0.2,0.6c-0.2,1.1-0.4,1.9-0.6,2.6c-0.2,0.7-0.4,1.2-0.6,1.8
			c-0.1,0.5-0.4,0.9-0.8,1.2c-0.4,0.3-0.8,0.5-1.2,0.5c-0.8,0-1.4-0.2-1.7-0.5c-0.3-0.3-0.5-0.8-0.6-1.5l-8.6,13.1
			c-0.1,0.2-0.3,0.4-0.4,0.6c-0.1,0.1-0.2,0.3-0.3,0.4l4-1.2l1.2-0.3c0.8,0.6,1.4,1.1,1.8,1.5c0.4,0.5,0.6,1,0.6,1.7
			c0,0.5-0.1,0.9-0.2,1.2c-0.1,0.3-0.3,0.6-0.5,0.8c-0.4,0.5-1.2,1.1-2.2,1.7c-1.1,0.6-2.4,1.2-3.9,1.7l-2.3,1l-1.2,0.4l-1.3,0.3
			c-0.5,0.6-1,1.4-1.6,2.4c-0.5,1-1.2,2.1-1.9,3.3v-0.1c-0.7,1.3-1.3,2.5-1.9,3.7c-0.6,1.2-1.3,2.7-2.1,4.5l-15.5,27.7l0.1-0.6
			c-0.2,0.6-0.7,1.1-1.4,1.7s-1.4,0.8-2.1,0.8c-0.2,0-0.4,0-0.6-0.1H341c-0.2,0-0.5-0.2-0.9-0.5c-0.4-0.3-0.8-0.6-1.2-0.9
			s-0.8-0.7-1.1-1.2c-0.4-0.4-0.6-0.8-0.8-1.1c0.6-0.7,1-1.8,1.3-3.3l0.2-1.1c0-0.2,0.2-0.7,0.3-1.4c0.2-0.8,0.3-1.6,0.5-2.5
			c0.2-0.9,0.4-1.7,0.5-2.4c0.2-0.7,0.3-1.2,0.3-1.3l2.5,5.1c0.4-0.7,0.7-1.3,1.1-2c0.3-0.7,0.7-1.4,1.2-2.2
			c0.4-0.6,0.7-1.3,1.1-1.9c0.4-0.7,0.8-1.5,1.3-2.4l0.4-0.7c0.9-1.7,2-3.6,3.1-5.7c1.1-2.1,2.4-4.4,3.7-7c0.9-1.8,1.8-3.4,2.5-4.9
			c0.7-1.5,1.4-2.8,2-4l-2.2,0.4l-0.7-0.1c-0.7,0-1.4-0.1-2.4-0.4c-0.9-0.3-1.9-0.7-3-1.4c-0.1-0.6-0.3-1.3-0.4-2
			c-0.1-0.7-0.1-1.5-0.1-2.3c0.6-0.7,1.1-1,1.4-1.2c0.4-0.1,0.7-0.2,1.2-0.3c0,0,0.1,0,0.2,0s0.2,0,0.3-0.1H353c0.4,0,1-0.1,1.8-0.1
			c0.8,0,1.5-0.1,2.2-0.1c1.4-0.1,2.5-0.2,3.3-0.3C361.1,242.1,361.7,242,362.1,241.9z"/>
		<path fill="#78A22F" d="M375.9,254.4c0.2-0.3,0.5-0.8,0.8-1.4c0.3-0.6,0.7-1.3,1.1-2.1c0.4-0.8,0.7-1.6,1.1-2.5
			c0.4-0.9,0.7-1.7,1.1-2.6l0.3-0.6c-0.3-0.6-0.4-1.3-0.4-2.2c0.1-0.5,0.3-1,0.7-1.5c0.4-0.5,0.9-1,1.6-1.7c0.5-0.6,0.8-1,1-1.2
			l0.1-0.1c0.4-0.5,0.8-0.9,1.3-1.1c0.5-0.2,1.1-0.4,1.6-0.4c0.4,0,0.6,0,0.8,0.1c0.9,0.2,1.6,0.5,2,0.9c0.5,0.4,0.7,1.1,0.7,2.2
			c0,0.2,0,0.5-0.1,0.7c0,0.2-0.1,0.5-0.2,0.7c-0.2,1.1-0.4,2-0.6,2.5c-0.1,0.5-0.3,1.1-0.6,1.6c-0.2,0.5-0.5,1-0.7,1.6
			c-0.3,0.5-0.7,1.3-1.2,2.2c-0.2,0.4-0.6,1-1,1.8c-0.4,0.7-1,1.7-1.6,2.9c-1.3,2.4-2.4,4.4-3.3,5.8c-0.9,1.5-1.8,2.8-2.6,3.9
			c-0.2,0.3-0.6,0.6-0.9,0.9c-0.4,0.3-0.8,0.6-1.2,0.8c-0.4,0.3-0.9,0.5-1.3,0.7c-0.4,0.2-0.8,0.3-1.1,0.3c-0.4,0-0.7,0-0.8-0.1
			c-0.2,0-0.4-0.2-0.6-0.4c-0.4-0.3-0.7-0.6-0.7-0.9c-0.1-0.3-0.1-0.6-0.1-0.9c0-0.3,0-0.6,0.1-0.9c0.1-0.3,0.3-0.6,0.5-1.1l0.8-1.3
			c0.1-0.1,0.2-0.2,0.2-0.4c0-0.1,0.1-0.3,0.1-0.4c0.1-0.3,0.3-0.7,0.6-1.2c0.3-0.5,0.6-1.1,0.9-1.9c0.3-0.6,0.6-1.2,0.9-1.8
			c0.3-0.6,0.5-0.9,0.6-1.1L375.9,254.4z M394.2,224.7c0.9,0.7,1.4,1.7,1.4,3.1l-0.1,1.3c-0.1,1.2-0.5,2.1-1.2,2.9
			c-0.6,0.7-1.4,1.5-2.4,2.2c-0.7,0.7-1.4,1.1-2,1.1c-0.6,0-0.9-0.1-1.2-0.2c-0.2-0.1-0.5-0.4-0.7-0.8l-0.1-0.1
			c-0.4-0.6-0.6-1.2-0.7-1.9c-0.1-0.7-0.2-1.3-0.2-2c0-1.2,0.2-2.2,0.5-2.8c0.3-0.7,1-1.3,1.9-2h-0.1c0.5-0.4,1-0.7,1.5-0.9
			c0.5-0.2,1.1-0.4,1.6-0.4C393.1,224.1,393.7,224.3,394.2,224.7z"/>
		<path fill="#78A22F" d="M387.6,259.8c0.1-0.5,0.2-0.9,0.3-1.3c0.1-0.4,0.3-0.9,0.6-1.6c0.3-0.7,0.8-1.5,1.4-2.7
			c0.6-1.1,1.5-2.6,2.6-4.6l-0.4-0.1c0-1-0.1-1.7-0.1-2c0-0.4,0-0.7,0-0.8c0-0.9,0.2-1.7,0.5-2.4c0.4-0.7,0.7-1.4,1-1.8
			c0.3-0.5,0.6-0.8,0.9-1.1c0.3-0.2,0.6-0.4,0.9-0.5c0.3-0.1,0.7-0.2,1.1-0.2h0.1c0,0,0.3-0.1,0.7-0.3l-0.1,0.1
			c0.4-0.2,0.7-0.3,1-0.5c0.3-0.1,0.6-0.2,0.8-0.2c0.7-1.1,1.4-2,2-2.9c0.6-0.9,1.1-1.7,1.6-2.6v0.1c0.6-0.9,1.2-2.1,1.9-3.4
			c0.7-1.3,1.5-2.7,2.2-4.1l0.9-1.8c0.6-1.2,1.3-2.1,2-2.9h1.1c0.1,0,0.2,0,0.2-0.1h-0.1c0.1,0,0.2-0.1,0.4-0.1
			c0.1,0,0.3-0.1,0.5-0.2c0.7-0.6,1.4-0.8,2.2-0.8c0.9,0,1.6,0.2,1.9,0.7c0.4,0.4,0.5,1.1,0.5,1.9c0,0.9-0.4,1.9-1.1,3.2v-0.1
			c-0.1,0.1-0.2,0.4-0.4,0.7c-0.2,0.3-0.4,0.7-0.6,1.1c-0.2,0.4-0.5,0.8-0.8,1.2c-0.3,0.4-0.6,0.9-1,1.5c-0.2,0.4-0.5,0.7-0.7,1.1
			c-0.2,0.4-0.5,0.7-0.7,1.1v-0.1c-0.3,0.5-0.6,0.9-0.8,1.4c-0.3,0.5-0.5,0.9-0.7,1.3c-0.3,0.5-0.6,0.9-0.9,1.4
			c-0.3,0.5-0.7,1-1.1,1.6c0.5,0,1-0.1,1.6-0.1c0.5,0,1.1-0.1,1.8-0.2c0.3,0,0.5-0.1,0.8-0.1c0.2,0,0.5,0,0.7-0.1c0.2,0,0.3,0,0.4,0
			c0,0,0.1,0,0.2-0.1c0.1,0,0.2,0,0.4,0c0.2,0,0.5,0,0.8,0l1.6-0.1c0.5-0.3,0.9-0.4,1.4-0.4c1.5,0,2.2,0.7,2.2,2.2
			c0,0.4-0.2,0.8-0.5,1.3c-0.3,0.5-0.6,1-0.9,1.3c-0.4,0.8-0.8,1.3-1.2,1.6c-0.4,0.3-1,0.6-1.8,0.7l-4.3,1.1c-0.4,0-1,0.1-1.6,0.2
			c-0.7,0.1-1.4,0.2-2.2,0.3c-0.7,0.1-1.3,0.2-2,0.2c-0.7,0.1-1.5,0.2-2.2,0.2c-0.8,1.2-1.6,2.4-2.2,3.4c-0.7,1.1-1.2,2-1.7,2.9
			s-0.9,1.8-1.3,2.6c-0.4,0.8-0.7,1.6-0.9,2.5l0.8,0.2v0.5c0,1.5-0.2,2.5-0.5,3.3c-0.3,0.7-0.7,1.3-1.2,1.9c-1,0.8-2,1.3-2.9,1.4
			c-0.7,0.5-1.4,0.7-2,0.7c-1.1,0-2-0.6-2.5-1.8c-0.4-0.8-0.6-1.8-0.6-2.9c0-0.2,0-0.5,0-0.8c0-0.3,0.1-0.6,0.1-1v0.2
			C387.5,260.2,387.6,260,387.6,259.8z"/>
		<path fill="#78A22F" d="M459.5,236.1c0.3,0,0.6,0,0.9,0.1c0.3,0,0.6,0.1,1,0.2c1.6-2.3,2.8-4.1,3.8-5.5c0.9-1.4,1.6-2.4,2.1-3.2
			c0.5-0.8,0.8-1.4,0.9-1.9c0.2-0.5,0.3-1,0.5-1.5l1.3-1.4c0.8-0.9,1.5-1.6,2-2.1c0.5-0.5,1-0.9,1.5-1.1c0.4-0.2,0.7-0.4,1-0.4
			c0.3,0,0.5-0.1,0.7-0.1c0.5,0,0.9,0.1,1.3,0.4c0.9,0.1,1.6,0.4,2.1,0.9c0.5,0.5,0.7,1.2,0.7,1.9c0,0.8-0.2,1.5-0.5,2
			c-0.5,0.7-1.1,1.6-2,2.8c-0.8,1.2-1.7,2.5-2.5,3.9c-0.3,0.5-0.6,1-0.9,1.4c-0.3,0.4-0.5,0.8-0.7,1.2c0.4-0.1,0.7-0.2,1.1-0.2
			c0.3-0.1,0.7-0.2,1-0.2h-0.1c0.4-0.1,0.7-0.2,0.9-0.2c0.2-0.1,0.4-0.2,0.8-0.3c0.4-0.2,1-0.5,1.9-0.8c0.8-0.3,1.8-0.7,3-1.1
			c1.4-0.5,2.7-1,3.9-1.5c1.3-0.5,2.4-1,3.4-1.5c1.1-0.5,2.1-1.1,3.2-1.7c1-0.6,2.1-1.3,3.2-2.1c0.7-0.3,1.3-0.6,1.8-0.7
			c0.5-0.2,1-0.2,1.5-0.2c1,0,1.9,0.4,2.7,1.2l0.1,0.1c0.4,0.4,0.7,0.7,0.7,0.9c0,0.2,0.1,0.5,0.1,0.8c0,0.3-0.1,0.6-0.3,1.1
			c-0.2,0.4-0.5,0.9-1,1.4c-1.3,1.4-2.2,2.2-2.7,2.7c-0.4,0.3-0.8,0.5-1.3,0.7c-0.5,0.2-1,0.4-1.5,0.7l-0.1,0.1
			c-0.1,0-0.2,0.1-0.3,0.1c-0.1,0-0.3,0.1-0.5,0.3l-0.4,0.2l0.1-0.1c-0.6,0.3-1.2,0.6-1.6,0.7c-0.5,0.1-0.9,0.2-1.2,0.2
			c-0.3,0.1-0.7,0.2-1.2,0.4c-0.5,0.2-0.9,0.3-1.4,0.5c-0.5,0.2-0.9,0.4-1.3,0.6c-0.4,0.2-0.6,0.4-0.8,0.5c-0.3,0.1-0.7,0.3-1.2,0.4
			c-0.4,0.1-0.9,0.2-1.4,0.2c0,0-0.1,0-0.1,0.1c-0.3,0.2-0.7,0.4-1.2,0.5c-0.4,0.1-1,0.3-1.6,0.5c-0.1,0-0.2,0.1-0.3,0.1h-0.1
			l-0.6,0.2h-0.2c-0.4,0.3-0.9,0.5-1.5,0.7c-1.5,0.8-3,1.4-4.2,1.9c-1.3,0.5-2.9,0.9-4.7,1.4c-0.2,0.1-0.4,0.2-0.6,0.2
			c-0.2,0.1-0.4,0.2-0.6,0.2c0.4,0.7,0.8,1.3,1.2,2c0.4,0.7,0.8,1.5,1.2,2.5c0.3,0.7,0.5,1.2,0.8,1.8c0.3,0.5,0.5,0.9,0.6,1.3
			l1.6,3.9v-0.1c0,0.1,0.3,0.4,0.8,0.7c1,0.7,1.8,1.4,2.3,2c0.1,0.1,0.4,0.2,0.8,0.4c0.4,0.1,0.9,0.3,1.4,0.4c0.5,0.1,1,0.3,1.6,0.4
			c0.5,0.1,1,0.1,1.3,0.1l2.3,0.4c1.4,0.4,2.5,0.6,3.4,0.6h0.4c0.5,0,1,0,1.3,0c0.4,0,0.7,0,1.1,0h1.6c1.7,0,2.8,0.2,3.3,0.5
			c0.5,0.4,0.7,1,0.7,2.1c0,1.4-0.2,2.2-0.5,2.6c-0.3,0.4-0.9,0.6-1.9,0.7l0.3-0.1c-0.2,0.1-0.4,0.1-0.5,0.1c-0.1,0-0.2,0-0.3,0.1
			l-0.6,0.1c-0.5,0.1-0.9,0.3-1.3,0.4c-0.4,0.1-0.7,0.2-1.1,0.2c-0.8,0.2-2,0.4-3.3,0.6c-1.4,0.2-2.7,0.3-3.9,0.3
			c-1.7,0-3.1-0.2-4.3-0.7c-0.4-0.2-0.8-0.4-1.3-0.6c-0.5-0.2-1.1-0.4-1.7-0.6l-1.9-0.8c-0.2-0.1-0.4-0.2-0.7-0.4
			c-0.3-0.2-0.5-0.4-0.7-0.5c-0.2-0.1-0.4-0.2-0.4-0.2c-0.1,0,0,0.1,0.2,0.2c-1-0.6-1.8-1-2.4-1.4c-0.6-0.4-1.2-0.8-1.6-1.2
			c-0.7-0.6-1.3-1.3-2.1-2.1c-0.7-0.8-1.5-1.7-2.3-2.8c-0.3-0.6-0.8-1.3-1.4-2.2c-0.3-0.4-0.6-0.8-0.9-1.2c-0.3-0.4-0.5-0.8-0.8-1.2
			c-0.7,1.1-1.4,2-1.9,2.9c-0.5,0.9-1,1.7-1.5,2.5l-0.9,1.5l0.1-0.1c-0.4,0.7-0.8,1.2-1.1,1.7c-0.3,0.5-0.5,0.8-0.7,1.1
			c-0.1,0.1-0.2,0.2-0.2,0.5c0,0.2,0,0.6,0,1.2c0,1.2-0.5,2.3-1.5,3.2c-1,0.9-2.2,1.5-3.6,1.8c-0.2,0-0.4,0.1-0.6,0.1
			c-0.2,0-0.4,0.1-0.5,0.1c-2.2,0-3.3-1.2-3.3-3.5c0-0.3,0-0.6,0.1-0.9c0.1-0.3,0.2-0.6,0.3-1c0.4-1.2,0.9-2.3,1.5-3.5
			c0.6-1.1,1.3-2.3,2-3.5c0.7-1,1.4-2.1,2.3-3.3c0.9-1.2,1.8-2.6,2.8-4c0.2-0.3,0.5-0.7,0.7-1.1l0.9-1.1c0,0,0-0.1,0-0.5
			c0-0.1,0.1-0.1,0.1-0.1c0,0,0.1,0,0.1-0.1c0,0-0.1-0.2-0.2-0.4c-0.7-0.8-1.1-1.8-1.1-2.7c0-0.6,0.1-1.2,0.3-1.8s0.6-1.1,1.1-1.7
			C456.9,236.7,458.2,236.1,459.5,236.1z M472,262.8c0,0-0.1,0-0.1-0.1c0.1,0.1,0.2,0.1,0.3,0.1L472,262.8z"/>
		<path fill="#78A22F" d="M510.6,240.8c0.8-0.6,1.8-1,2.8-1.4c1-0.4,2-0.6,2.8-0.6c1,0,1.8,0.3,2.4,0.8c1.2,0.9,1.8,2.4,1.8,4.6
			c0.2-0.1,0.5-0.2,0.7-0.3c0.3-0.1,0.6-0.2,0.9-0.4v3.4c0,0.2-0.1,0.5-0.1,0.7c0,0.3-0.1,0.6-0.1,1.2c0,0.8,0,1.4-0.1,1.9
			c-0.1,0.5-0.2,0.8-0.3,1.1c-0.4,1.3-1.3,3-2.7,5.2c-0.1,0.2-0.3,0.4-0.4,0.6c-0.1,0.2-0.3,0.4-0.4,0.6c1.1,0.3,1.7,1,1.7,2
			c0,0.3-0.1,0.7-0.2,1.2c-0.2,0.5-0.4,1.1-0.8,1.8c-0.5,0.3-0.9,0.6-1.3,0.9c-0.7,0.7-1.4,1.2-2.2,1.6h-0.2
			c-0.4,0.6-1.2,0.8-2.2,0.8c-0.4,0-0.7,0-1,0c-0.2,0-0.5-0.1-0.7-0.1h-0.2c-1.5-0.6-2.3-1.5-2.3-2.7c0-0.2,0-0.5,0.1-0.8
			c0-0.3,0.2-0.6,0.4-1.1c0.2-0.5,0.6-1.4,1.1-2.7c-0.4,0.1-0.7,0.2-0.9,0.2c-0.2,0-1,0.7-2.2,2.2c-0.2,0.3-0.5,0.6-0.9,0.8
			c-0.4,0.2-0.8,0.3-1.3,0.3c0,0-0.3,0.2-0.6,0.5c-0.4,0.4-0.8,0.8-1.3,1.2c-0.6,0.5-1.3,0.9-2,1.3c-0.7,0.4-1.4,0.6-1.9,0.6
			c-0.1,0-0.5,0.1-1,0.3c-0.5,0.2-1,0.4-1.5,0.6c0.3,0,0.4,0,0.4,0.1h-1.1c-1.1,0-1.9-0.4-2.4-1.1c-0.5-0.7-0.8-1.5-0.8-2.3v-0.1
			c0-0.9,0.1-1.6,0.3-2.1c0.1-0.5,0.5-1.1,1.2-1.7l-0.1,0.1l7-10c0.3-0.5,0.9-1.1,1.6-1.9c0.7-0.8,1.6-1.7,2.5-2.6
			c0.9-0.9,1.9-1.8,2.9-2.7C508.8,242.2,509.7,241.4,510.6,240.8L510.6,240.8z M509.9,249.1c-1.4,1.3-2.7,2.7-3.9,4.2
			c-1.2,1.5-2.4,3.1-3.5,4.7c0.2-0.1,0.4-0.2,0.6-0.4c0.2-0.2,0.4-0.3,0.5-0.4c0.7-0.4,1.2-0.7,1.6-1.1c0.1-0.6,0.3-1,0.6-1.3
			c0.3-0.3,0.9-0.5,1.7-0.6c0.1-0.2,0.2-0.4,0.4-0.5c0.2-0.1,0.3-0.3,0.5-0.4c0.1-0.1,0.3-0.2,0.4-0.3c0.1-0.1,0.3-0.2,0.4-0.3
			l-0.1,0.1c0.6-0.4,1-1.1,1.4-2c0.4-0.9,0.8-2,1.3-3.4c-0.2,0.2-0.5,0.4-0.8,0.7C510.6,248.4,510.2,248.7,509.9,249.1z
			 M505.8,255.8c-0.2,0.1-0.4,0.2-0.4,0.2c0,0-0.1,0.1-0.1,0.1c0.1-0.1,0.3-0.2,0.4-0.2c0.1,0,0.3-0.1,0.5-0.2L505.8,255.8z
			 M507.1,254.6c0,0,0.1-0.1,0.1-0.1c0,0,0.1-0.1,0.1-0.1C507.2,254.4,507.1,254.5,507.1,254.6z M515.1,265.3c0,0.1-0.1,0.2-0.2,0.3
			h0.1L515.1,265.3z"/>
	</g>
</g>
</svg>
