<?xml version="1.0" encoding="utf-8"?>
<!-- Generator: Adobe Illustrator 16.0.0, SVG Export Plug-In . SVG Version: 6.00 Build 0)  -->
<!DOCTYPE svg PUBLIC "-//W3C//DTD SVG 1.1//EN" "http://www.w3.org/Graphics/SVG/1.1/DTD/svg11.dtd">
<svg version="1.1" id="Layer_1" xmlns="http://www.w3.org/2000/svg" xmlns:xlink="http://www.w3.org/1999/xlink" x="0px" y="0px"
	 width="376.066px" height="101.117px" viewBox="0 0 376.066 101.117" enable-background="new 0 0 376.066 101.117"
	 xml:space="preserve">
<g>
	<g>
		<g>
			<path fill="#78A22F" d="M301.377,53.495c-0.651,0-1.116,0-1.488,0s-0.837,0.093-1.396,0.186l-0.372,0.094h-0.186
				c-0.187,0.093-0.372,0.093-0.559,0.093c-0.186,0-0.372,0-0.558,0.093l0.186-0.093c-1.395,0.186-2.511,0.372-3.255,0.465
				s-1.303,0.093-1.768,0.093c-0.744,0-1.395-0.186-2.046-0.465c-0.279-0.186-0.465-0.372-0.559-0.558
				c-0.093-0.094-0.186-0.372-0.186-0.559c0-0.093,0.093-0.279,0.186-0.558c0.094-0.187,0.279-0.372,0.466-0.559
				c0.093-0.093,0.186-0.186,0.278-0.372c0.559-0.558,1.396-1.022,2.419-1.302c1.022-0.279,2.697-0.465,4.836-0.465h2.047
				c0.465,0,0.744-0.094,1.023-0.094c0.186,0,0.465-0.093,0.65-0.093c0.187,0,0.465,0,0.744-0.093c0,0,0.093,0,0.187,0
				c0.093,0,0.186,0,0.278-0.093c0.372,0,0.651-0.094,0.931-0.094s0.372,0,0.279,0c0.093,0,0.278,0,0.372-0.093h0.278
				c0.466,0,0.931,0.093,1.303,0.279c0.372,0.186,0.558,0.558,0.558,1.022v0.187c0,0.093-0.093,0.279-0.093,0.372
				c0,0.93-0.465,1.396-1.488,1.581c-0.279,0.279-0.651,0.465-1.023,0.559C302.773,53.402,302.121,53.495,301.377,53.495z
				 M304.447,52.471c0,0.093-0.093,0.093-0.093,0.093l-0.093,0.094l0.093-0.094C304.354,52.564,304.354,52.564,304.447,52.471z"/>
		</g>
	</g>
	<g>
		<path fill="#86A315" d="M88.565,90.42L88.565,90.42c-28.462-1.488-40.367-33.112-40.367-33.112S64.196,83.63,85.495,85.305
			c3.999-44.088-51.622-42.601-40.367-71.527c-7.813,9.208-12.557,21.207-12.557,34.228c0,29.393,23.811,53.11,53.109,53.11
			c24.184,0,44.554-16.091,50.972-38.135C129.304,80.654,104.098,91.816,88.565,90.42z"/>
		<path fill="#8D7E74" d="M109.12,14.15c-3.813-1.209-18.975-1.674-22.602-4.372C83.728,7.732,79.077-0.36,72.474,0.012
			C63.731,0.57,51.732,4.57,47.361,11.732c-4.093,11.906,3.348,18.51,13.021,25.578c4.465-3.349,6.231-15.44,3.441-26.229
			c6.511,15.905,2.14,25.021-0.372,28.462c6.139,4.465,12.649,9.208,17.579,15.72c-0.279-4-0.744-7.628-0.93-10.325
			c-0.744-10.882,8.278-9.115,22.229-13.766C112.097,27.917,112.934,15.453,109.12,14.15z"/>
		<path fill="#8D7E74" d="M125.49,16.94l-2.79,7.813c0,0-6.511,0.186-9.674,3.349c-3.162,3.069-1.116,7.255-7.813,11.348
			c0,0,0.744,4.186,6.231,5.953c4.837,1.581,6.977-2.047,9.859-2.047c0.837,5.395-2.977,13.394-10.51,20.091l0,0
			c-5.023,3.721-10.511,9.022-13.208,14.789c-1.023-8.186-4.372-13.858-4.278-18.975c0-1.302,0.186-2.512,0.558-3.906
			c0.93-2.604,2.046-2.977,3.628-3.069c1.115,0,2.418,0.465,3.255,1.302c0.931,0.837,1.396,1.768,1.396,2.977
			c0,0.651-0.187,1.396-0.651,2.232c-0.651,1.302-0.186,2.883,1.116,3.534s2.884,0.187,3.534-1.116l0,0
			c0.838-1.581,1.209-3.162,1.209-4.65c0-2.79-1.302-5.302-3.162-6.883s-4.278-2.604-6.79-2.604
			c-3.534-0.093-7.348,2.325-8.649,6.79c-0.559,1.86-0.838,3.721-0.838,5.487c0.187,8.278,4.651,14.324,4.558,23.067
			c0,0.744,0,1.488-0.093,2.325c0,0.187,0,0.279,0,0.465c1.116,0,2.232-0.093,3.349-0.186l0,0c0.279,0,0.651-0.093,0.93-0.093
			c0.279,0,0.651-0.094,0.931-0.094l0,0c14.603-1.86,32.926-11.626,39.623-25.857C141.582,36.38,133.304,22.521,125.49,16.94z"/>
		<path fill="#86A315" d="M46.151,93.397c-4.836-22.044-33.484-20.463-45.854-10.79c11.068-3.999,21.672,23.347,43.809,14.324
			c-0.465-5.487-18.51-15.439-25.113-15.439C26.711,80.468,43.081,89.211,46.151,93.397z"/>
	</g>
	<g>
		<path fill="#78A22F" d="M173.114,67.725c0.186-0.186,0.372-0.372,0.465-0.558c0.651-0.837,1.395-1.953,2.325-3.162
			c0.93-1.21,1.86-2.604,2.977-4.186c-0.187,0-0.372,0-0.465-0.094c-0.094,0-0.279-0.093-0.466-0.093c-0.186,0-0.372,0-0.465-0.093
			h0.093c-0.65-0.094-1.116-0.465-1.581-1.116s-0.651-1.303-0.651-1.953c0-1.023,0.372-1.768,1.116-2.325l-0.093,0.093l2.512-1.86
			l-0.279,0.186c0.372-0.372,0.744-0.558,1.209-0.65c0.465-0.094,0.931-0.187,1.488-0.187c0.465,0,1.116,0.093,1.86,0.187
			c0-0.094,0.093-0.187,0.093-0.279s0-0.187,0.094-0.279l0.093-0.372c0-0.186,0-0.372,0.093-0.558c0-0.187,0.093-0.279,0.093-0.465
			v-0.372c0-0.372,0.279-0.838,0.651-1.303c0.372-0.558,0.837-1.023,1.302-1.581c0.466-0.465,1.023-0.93,1.488-1.302
			c0.466-0.372,0.838-0.651,1.116-0.651h0.094h0.093l-0.465,0.093c0.186,0,0.372-0.093,0.558-0.093c0.187,0,0.372,0,0.559,0
			c2.139,0,3.162,1.116,3.162,3.349c0,0.372,0,0.65-0.093,1.022c-0.094,0.372-0.187,0.744-0.187,1.116l4.837-2.325
			c0.65-0.372,1.209-0.651,1.767-0.93c0.559-0.279,0.837-0.465,0.931-0.559c0.93-1.022,1.395-1.767,1.395-2.325
			c0-0.651-0.465-1.023-1.488-1.396c-3.348-0.93-6.696-1.395-10.045-1.395c-1.395,0-2.977,0.093-4.743,0.186h0.093
			c-0.93,0.187-1.581,0.279-1.86,0.372s-0.465,0.093-0.558,0.187c-0.187,0.372-0.372,0.744-0.559,1.209l-0.093,0.093l0.093-0.093
			c-0.186,0.465-0.651,0.744-1.209,1.023c-0.558,0.278-1.209,0.372-1.953,0.372h-1.488c-1.396-0.279-2.046-1.023-2.046-2.14
			c0-0.279,0.093-0.651,0.278-1.023c0-0.186,0.187-0.465,0.465-0.744c0.838-1.395,1.675-2.511,2.419-3.255
			c0.744-0.837,1.674-1.488,2.79-2.047l-0.093,0.094c1.116-0.651,2.512-1.023,4.186-1.396c1.674-0.279,3.721-0.465,6.325-0.559
			c0.093,0,0.278,0,0.465,0c0.186,0,0.465,0.094,0.651,0.187l-0.279-0.093c0.093,0,0.372,0.093,0.744,0.093
			c1.767,0.186,3.255,0.372,4.558,0.465c1.302,0.187,2.325,0.279,3.162,0.465c1.674,0.279,3.162,0.744,4.558,1.396
			c1.488,0.651,2.604,1.581,3.255,2.884c0.651,1.209,1.116,2.976,1.396,5.302c-0.372,0.372-0.651,0.837-1.023,1.302
			c-0.278,0.465-0.65,0.93-1.022,1.396V46.89c-0.372,0.651-0.651,1.116-1.023,1.675c-0.372,0.465-0.651,0.93-1.023,1.302
			s-0.744,0.744-1.209,1.023s-0.93,0.558-1.488,0.837c-1.023,0.744-1.953,1.396-2.79,1.86s-1.86,0.931-2.884,1.396
			c-0.186,0.093-0.372,0.186-0.65,0.278c1.022,0.559,1.859,1.023,2.511,1.675c0.093,0.093,0.187,0.186,0.372,0.372
			c0.187,0.093,0.372,0.279,0.559,0.372l-0.187-0.093c0.465,0.278,0.931,0.558,1.209,0.837c0.372,0.279,0.651,0.465,1.023,0.744
			v-0.093c0.372,0.278,0.651,0.65,1.023,1.209c0.372,0.558,0.558,1.116,0.744,1.674c0.186,0.651,0.372,1.209,0.558,1.86
			c0.093,0.651,0.187,1.209,0.187,1.768c0,0.186,0,0.372-0.094,0.558v0.093c0,0.187-0.186,0.559-0.465,1.023
			s-0.558,1.023-0.93,1.581c-0.372,0.559-0.651,1.023-0.931,1.488s-0.465,0.744-0.651,0.837c-0.558,0.466-1.022,0.838-1.487,1.116
			c-0.466,0.279-0.931,0.559-1.303,0.838c-0.465,0.278-0.93,0.465-1.396,0.743c-0.465,0.187-1.022,0.466-1.674,0.744h0.094
			l-0.559,0.279l-1.674,0.279h-0.559c-0.465,0.093-1.116,0.279-1.953,0.372s-1.768,0.279-2.697,0.372
			c-1.023,0.093-1.953,0.278-2.977,0.372c-1.023,0.093-1.86,0.186-2.697,0.186h-0.744c-2.977-0.093-5.302-0.186-6.883-0.186
			c-0.837,0-1.768-0.094-2.697-0.279c-0.931-0.093-1.86-0.279-2.884-0.558l-0.558-0.559h-0.372c-0.279,0-0.559,0-0.651-0.093
			c-1.302-0.465-2.325-0.837-3.162-1.303c-0.837-0.465-1.488-0.93-2.047-1.395c-0.465-0.465-0.837-1.023-1.022-1.581
			c-0.187-0.559-0.279-1.116-0.279-1.768c0-0.559,0.186-1.116,0.465-1.768c0.279-0.65,0.651-1.302,1.116-1.86
			c0.465-0.558,0.931-1.116,1.396-1.488c0.465-0.371,0.93-0.65,1.302-0.65h0.093c0.187,0,0.466-0.094,0.744-0.094
			c0.279,0,0.559,0,0.744,0.094h0.466c0.186,0.186,0.372,0.465,0.744,1.022c0.278,0.466,0.465,1.023,0.558,1.488
			c0.093,0.651,0.187,1.023,0.187,1.21c0.743,0.558,2.046,1.022,3.813,1.395c0.093-0.186,0.186-0.372,0.372-0.465L173.114,67.725z
			 M181.391,67.54c-0.186,0.279-0.465,0.558-0.65,0.837c-0.279,0.279-0.466,0.559-0.744,0.93c0.65,0.094,1.395,0.187,2.139,0.187
			s1.488,0.093,2.232,0.093c2.047,0,3.813-0.093,5.209-0.372c1.396-0.186,2.604-0.558,3.627-1.116
			c0.931-0.093,1.675-0.372,2.232-0.744c0.559-0.372,0.744-0.744,0.744-1.209c0,0,0-0.093-0.093-0.093
			c-0.372-0.837-0.744-1.581-1.302-2.232c-0.559-0.651-1.21-1.116-1.954-1.488c-0.837-0.372-1.767-0.651-2.883-0.93
			c-1.116-0.187-2.512-0.372-4.093-0.559c0.279,0.093-0.186,1.023-1.396,2.604L181.391,67.54z"/>
		<path fill="#78A22F" d="M206.411,64.563c0.187-0.279,0.465-0.744,0.744-1.302c0.279-0.559,0.651-1.21,1.023-1.954
			s0.65-1.487,1.022-2.325c0.372-0.837,0.651-1.581,1.023-2.418l0.279-0.559c-0.279-0.558-0.372-1.209-0.372-2.046
			c0.093-0.465,0.278-0.93,0.651-1.396c0.371-0.465,0.837-0.93,1.487-1.581c0.466-0.558,0.744-0.93,0.931-1.116l0.093-0.093
			c0.372-0.465,0.744-0.837,1.209-1.023c0.466-0.186,1.023-0.372,1.488-0.372c0.372,0,0.559,0,0.744,0.094
			c0.837,0.186,1.488,0.465,1.86,0.837c0.465,0.372,0.651,1.023,0.651,2.046c0,0.187,0,0.465-0.093,0.651
			c0,0.186-0.094,0.465-0.187,0.651c-0.186,1.022-0.372,1.86-0.558,2.325c-0.094,0.465-0.279,1.022-0.559,1.488
			c-0.186,0.465-0.465,0.93-0.651,1.488c-0.278,0.465-0.65,1.209-1.116,2.046c-0.186,0.372-0.558,0.93-0.93,1.674
			c-0.372,0.651-0.93,1.582-1.488,2.697c-1.209,2.232-2.232,4.093-3.069,5.396c-0.837,1.395-1.674,2.604-2.418,3.627
			c-0.187,0.279-0.559,0.559-0.838,0.837c-0.372,0.279-0.744,0.559-1.116,0.744c-0.371,0.279-0.837,0.466-1.209,0.651
			c-0.372,0.187-0.744,0.279-1.022,0.279c-0.372,0-0.651,0-0.744-0.093c-0.187,0-0.372-0.187-0.559-0.372
			c-0.372-0.279-0.651-0.559-0.651-0.838c-0.093-0.278-0.093-0.558-0.093-0.837s0-0.558,0.093-0.837
			c0.094-0.279,0.279-0.558,0.466-1.023l0.744-1.209c0.093-0.093,0.186-0.186,0.186-0.372c0-0.093,0.093-0.279,0.093-0.372
			c0.094-0.279,0.279-0.651,0.559-1.116s0.558-1.022,0.837-1.767c0.279-0.559,0.558-1.116,0.837-1.675
			c0.279-0.558,0.465-0.837,0.559-1.023L206.411,64.563z M223.433,36.938c0.837,0.651,1.302,1.581,1.302,2.884l-0.093,1.209
			c-0.093,1.116-0.465,1.953-1.116,2.697c-0.558,0.651-1.302,1.396-2.232,2.047c-0.651,0.65-1.302,1.022-1.86,1.022
			c-0.558,0-0.837-0.093-1.116-0.186c-0.186-0.093-0.465-0.372-0.65-0.744l-0.094-0.093c-0.372-0.559-0.558-1.116-0.65-1.768
			c-0.094-0.651-0.187-1.209-0.187-1.86c0-1.116,0.187-2.046,0.465-2.604c0.279-0.651,0.931-1.209,1.768-1.86h-0.093
			c0.465-0.372,0.93-0.65,1.395-0.837c0.466-0.186,1.023-0.372,1.488-0.372C222.502,36.38,222.968,36.566,223.433,36.938z"/>
		<path fill="#78A22F" d="M227.339,52.936c0.465,0,0.837-0.186,1.209-0.465l4.93-9.208c1.209-1.674,2.232-3.069,2.884-4.186
			c0.744-1.116,1.302-1.953,1.674-2.697s0.651-1.303,0.837-1.768c0.187-0.465,0.372-0.837,0.466-1.209l0.093-0.186
			c0.186-0.651,0.372-1.023,0.558-1.303c0.187-0.279,0.466-0.465,0.931-0.651c0.837-1.116,1.581-1.953,2.232-2.604
			c0.65-0.65,1.116-1.115,1.395-1.487c1.21-1.117,2.512-1.675,3.813-1.675c0.279,0,0.744,0.093,1.303,0.279
			c0.558,0.186,1.395,0.465,2.511,1.023c-0.186,0.651-0.465,1.582-0.743,2.604c-0.279,1.023-0.559,1.954-0.744,2.884l0.093-0.093
			c0,0.186-0.093,0.465-0.187,0.651c-0.093,0.186-0.093,0.372-0.186,0.558c-0.187,1.023-0.372,1.768-0.559,2.418
			c-0.186,0.651-0.372,1.116-0.558,1.675c-0.093,0.465-0.372,0.837-0.744,1.116c-0.372,0.278-0.744,0.465-1.116,0.465
			c-0.744,0-1.302-0.187-1.581-0.465c-0.279-0.279-0.465-0.744-0.559-1.396l-7.999,12.185c-0.093,0.187-0.279,0.372-0.372,0.559
			c-0.093,0.093-0.186,0.278-0.278,0.372l3.72-1.116l1.116-0.279c0.744,0.558,1.303,1.023,1.675,1.396
			c0.372,0.465,0.558,0.93,0.558,1.581c0,0.465-0.093,0.837-0.186,1.116c-0.094,0.278-0.279,0.558-0.466,0.744
			c-0.372,0.465-1.116,1.022-2.046,1.581c-1.023,0.558-2.232,1.116-3.628,1.581l-2.139,0.93l-1.116,0.372l-1.209,0.279
			c-0.465,0.559-0.931,1.303-1.488,2.232c-0.465,0.93-1.116,1.953-1.768,3.069v-0.093c-0.651,1.209-1.209,2.325-1.767,3.441
			c-0.559,1.116-1.21,2.512-1.954,4.186l-14.417,25.765l0.094-0.559c-0.187,0.559-0.651,1.023-1.303,1.581
			c-0.65,0.559-1.302,0.744-1.953,0.744c-0.186,0-0.372,0-0.558-0.093h-0.094c-0.186,0-0.465-0.186-0.837-0.465
			s-0.744-0.559-1.116-0.837c-0.372-0.279-0.744-0.651-1.022-1.116c-0.372-0.372-0.559-0.744-0.744-1.023
			c0.558-0.651,0.93-1.674,1.209-3.069l0.186-1.023c0-0.186,0.187-0.65,0.279-1.302c0.187-0.744,0.279-1.488,0.465-2.325
			c0.187-0.837,0.372-1.581,0.465-2.232c0.187-0.651,0.279-1.116,0.279-1.209l2.325,4.743c0.372-0.651,0.651-1.209,1.023-1.86
			c0.279-0.65,0.651-1.302,1.116-2.046c0.372-0.559,0.651-1.209,1.023-1.768c0.372-0.651,0.744-1.395,1.209-2.232l0.372-0.65
			c0.837-1.581,1.86-3.349,2.883-5.302c1.023-1.953,2.232-4.093,3.441-6.511c0.838-1.675,1.675-3.163,2.326-4.558
			c0.65-1.396,1.302-2.604,1.859-3.721l-2.046,0.372l-0.651-0.093c-0.65,0-1.302-0.094-2.232-0.373
			c-0.837-0.278-1.767-0.65-2.79-1.302c-0.093-0.558-0.279-1.209-0.372-1.86c-0.093-0.65-0.093-1.395-0.093-2.139
			c0.558-0.651,1.023-0.931,1.302-1.116c0.372-0.094,0.651-0.187,1.116-0.279c0,0,0.094,0,0.187,0s0.186,0,0.279-0.093h-0.279
			c0.372,0,0.93-0.094,1.674-0.094s1.396-0.093,2.047-0.093c1.302-0.093,2.325-0.186,3.069-0.279
			C226.409,53.123,226.967,53.03,227.339,52.936z"/>
		<path fill="#78A22F" d="M240.175,64.563c0.186-0.279,0.465-0.744,0.744-1.302c0.279-0.559,0.651-1.21,1.022-1.954
			c0.372-0.744,0.651-1.487,1.023-2.325c0.372-0.837,0.651-1.581,1.023-2.418l0.279-0.559c-0.279-0.558-0.372-1.209-0.372-2.046
			c0.093-0.465,0.278-0.93,0.65-1.396c0.372-0.465,0.838-0.93,1.488-1.581c0.466-0.558,0.744-0.93,0.931-1.116l0.093-0.093
			c0.372-0.465,0.744-0.837,1.209-1.023c0.465-0.186,1.023-0.372,1.488-0.372c0.372,0,0.559,0,0.744,0.094
			c0.837,0.186,1.488,0.465,1.86,0.837c0.465,0.372,0.651,1.023,0.651,2.046c0,0.187,0,0.465-0.094,0.651
			c0,0.186-0.093,0.465-0.186,0.651c-0.187,1.022-0.372,1.86-0.559,2.325c-0.093,0.465-0.278,1.022-0.558,1.488
			c-0.187,0.465-0.465,0.93-0.651,1.488c-0.278,0.465-0.651,1.209-1.116,2.046c-0.186,0.372-0.558,0.93-0.93,1.674
			c-0.372,0.651-0.931,1.582-1.488,2.697c-1.209,2.232-2.232,4.093-3.069,5.396c-0.837,1.395-1.675,2.604-2.419,3.627
			c-0.186,0.279-0.558,0.559-0.837,0.837c-0.372,0.279-0.744,0.559-1.116,0.744c-0.372,0.279-0.837,0.466-1.209,0.651
			c-0.372,0.187-0.744,0.279-1.023,0.279c-0.372,0-0.65,0-0.744-0.093c-0.186,0-0.371-0.187-0.558-0.372
			c-0.372-0.279-0.651-0.559-0.651-0.838c-0.093-0.278-0.093-0.558-0.093-0.837s0-0.558,0.093-0.837
			c0.094-0.279,0.279-0.558,0.466-1.023l0.743-1.209c0.094-0.093,0.187-0.186,0.187-0.372c0-0.093,0.093-0.279,0.093-0.372
			c0.093-0.279,0.279-0.651,0.559-1.116c0.278-0.465,0.558-1.022,0.837-1.767c0.279-0.559,0.558-1.116,0.837-1.675
			c0.279-0.558,0.465-0.837,0.559-1.023L240.175,64.563z M257.197,36.938c0.837,0.651,1.302,1.581,1.302,2.884l-0.093,1.209
			c-0.093,1.116-0.465,1.953-1.116,2.697c-0.559,0.651-1.303,1.396-2.232,2.047c-0.651,0.65-1.302,1.022-1.86,1.022
			c-0.558,0-0.837-0.093-1.116-0.186c-0.186-0.093-0.465-0.372-0.651-0.744l-0.093-0.093c-0.372-0.559-0.558-1.116-0.651-1.768
			c-0.093-0.651-0.186-1.209-0.186-1.86c0-1.116,0.186-2.046,0.465-2.604c0.279-0.651,0.931-1.209,1.768-1.86h-0.093
			c0.465-0.372,0.93-0.65,1.395-0.837c0.465-0.186,1.023-0.372,1.488-0.372C256.173,36.38,256.731,36.566,257.197,36.938z"/>
		<path fill="#78A22F" d="M251.057,69.585c0.094-0.465,0.187-0.837,0.279-1.209c0.094-0.372,0.279-0.837,0.559-1.488
			c0.278-0.651,0.744-1.396,1.302-2.512c0.559-1.022,1.396-2.418,2.419-4.278l-0.372-0.093c0-0.93-0.094-1.581-0.094-1.86
			c0-0.372,0-0.651,0-0.744c0-0.837,0.187-1.581,0.466-2.232c0.371-0.65,0.65-1.302,0.93-1.674c0.279-0.465,0.558-0.744,0.837-1.023
			c0.279-0.186,0.559-0.372,0.837-0.465c0.279-0.093,0.651-0.187,1.023-0.187h0.093c0,0,0.279-0.093,0.651-0.278l-0.093,0.093
			c0.372-0.187,0.651-0.279,0.93-0.465c0.279-0.094,0.559-0.187,0.744-0.187c0.651-1.022,1.303-1.86,1.86-2.697
			c0.559-0.837,1.023-1.581,1.488-2.418v0.093c0.558-0.837,1.116-1.953,1.768-3.162c0.65-1.209,1.395-2.512,2.046-3.813l0.837-1.675
			c0.559-1.116,1.209-1.953,1.86-2.697h1.023c0.093,0,0.186,0,0.186-0.093h-0.093c0.093,0,0.187-0.093,0.372-0.093
			c0.093,0,0.279-0.094,0.465-0.187c0.651-0.558,1.303-0.744,2.047-0.744c0.837,0,1.488,0.187,1.767,0.651
			c0.372,0.372,0.466,1.023,0.466,1.768c0,0.837-0.372,1.767-1.023,2.976v-0.093c-0.093,0.093-0.187,0.372-0.372,0.651
			c-0.187,0.279-0.372,0.651-0.559,1.023c-0.186,0.372-0.465,0.743-0.744,1.116c-0.278,0.371-0.558,0.837-0.93,1.395
			c-0.186,0.372-0.465,0.651-0.651,1.023c-0.186,0.372-0.465,0.651-0.65,1.023v-0.094c-0.279,0.466-0.559,0.838-0.744,1.303
			c-0.279,0.465-0.466,0.837-0.651,1.209c-0.279,0.465-0.559,0.837-0.837,1.302c-0.279,0.466-0.651,0.931-1.023,1.488
			c0.465,0,0.93-0.093,1.488-0.093c0.465,0,1.023-0.093,1.674-0.186c0.279,0,0.466-0.094,0.744-0.094c0.187,0,0.465,0,0.651-0.093
			c0.186,0,0.279,0,0.372,0c0,0,0.093,0,0.186-0.093c0.094,0,0.187,0,0.372,0c0.187,0,0.466,0,0.744,0l1.488-0.093
			c0.466-0.279,0.838-0.372,1.303-0.372c1.395,0,2.046,0.65,2.046,2.046c0,0.372-0.186,0.744-0.465,1.209s-0.559,0.931-0.837,1.209
			c-0.372,0.744-0.744,1.21-1.116,1.488c-0.372,0.279-0.931,0.559-1.675,0.651l-3.999,1.023c-0.372,0-0.931,0.093-1.488,0.186
			c-0.651,0.093-1.303,0.187-2.046,0.279c-0.651,0.093-1.21,0.186-1.86,0.186c-0.651,0.094-1.396,0.187-2.047,0.187
			c-0.744,1.116-1.488,2.232-2.046,3.162c-0.651,1.023-1.116,1.86-1.581,2.697c-0.466,0.837-0.838,1.675-1.21,2.419
			c-0.371,0.744-0.65,1.488-0.837,2.325l0.744,0.186v0.466c0,1.395-0.186,2.325-0.465,3.069c-0.279,0.65-0.651,1.209-1.116,1.767
			c-0.93,0.744-1.86,1.209-2.697,1.303c-0.651,0.465-1.302,0.65-1.86,0.65c-1.023,0-1.86-0.558-2.325-1.674
			c-0.372-0.744-0.559-1.674-0.559-2.697c0-0.187,0-0.465,0-0.744s0.094-0.559,0.094-0.931v0.187
			C250.964,69.958,251.057,69.772,251.057,69.585z"/>
		<path fill="#78A22F" d="M317.934,47.542c0.278,0,0.558,0,0.837,0.093c0.278,0,0.558,0.094,0.93,0.187
			c1.488-2.14,2.604-3.813,3.534-5.116c0.838-1.302,1.488-2.231,1.954-2.976c0.465-0.744,0.744-1.303,0.837-1.768
			c0.186-0.465,0.279-0.93,0.465-1.396l1.209-1.302c0.744-0.837,1.396-1.488,1.86-1.953s0.931-0.837,1.396-1.023
			c0.372-0.186,0.651-0.372,0.93-0.372c0.279,0,0.465-0.093,0.651-0.093c0.465,0,0.837,0.093,1.209,0.372
			c0.837,0.093,1.488,0.372,1.953,0.837c0.466,0.465,0.651,1.116,0.651,1.768c0,0.744-0.186,1.395-0.465,1.86
			c-0.465,0.65-1.023,1.487-1.86,2.604c-0.744,1.116-1.581,2.326-2.325,3.628c-0.279,0.465-0.559,0.93-0.837,1.302
			c-0.279,0.372-0.466,0.744-0.651,1.116c0.372-0.093,0.651-0.186,1.023-0.186c0.278-0.093,0.65-0.187,0.93-0.187h-0.093
			c0.372-0.093,0.65-0.186,0.837-0.186c0.186-0.093,0.372-0.187,0.744-0.279c0.372-0.186,0.93-0.465,1.768-0.744
			c0.744-0.279,1.674-0.651,2.79-1.023c1.302-0.465,2.511-0.93,3.627-1.395c1.21-0.465,2.232-0.931,3.163-1.396
			c1.022-0.465,1.953-1.023,2.977-1.581c0.93-0.559,1.953-1.209,2.976-1.953c0.651-0.279,1.21-0.559,1.675-0.651
			c0.465-0.186,0.93-0.186,1.395-0.186c0.931,0,1.768,0.372,2.512,1.116l0.093,0.093c0.372,0.372,0.651,0.651,0.651,0.837
			s0.093,0.465,0.093,0.744s-0.093,0.558-0.278,1.023c-0.187,0.372-0.466,0.837-0.931,1.302c-1.209,1.302-2.046,2.046-2.511,2.512
			c-0.372,0.278-0.744,0.465-1.21,0.65c-0.465,0.187-0.93,0.372-1.395,0.651l-0.094,0.093c-0.093,0-0.186,0.094-0.278,0.094
			c-0.094,0-0.279,0.093-0.465,0.278l-0.372,0.187l0.093-0.093c-0.559,0.278-1.116,0.558-1.488,0.65
			c-0.465,0.094-0.837,0.187-1.116,0.187c-0.279,0.093-0.651,0.186-1.116,0.372c-0.465,0.186-0.837,0.278-1.302,0.465
			c-0.466,0.186-0.838,0.372-1.21,0.558c-0.372,0.187-0.558,0.372-0.744,0.466c-0.278,0.093-0.65,0.278-1.115,0.372
			c-0.373,0.093-0.838,0.186-1.303,0.186c0,0-0.093,0-0.093,0.093c-0.279,0.187-0.651,0.372-1.116,0.466
			c-0.372,0.093-0.931,0.278-1.488,0.465c-0.093,0-0.187,0.093-0.279,0.093h-0.093l-0.558,0.187h-0.187
			c-0.372,0.278-0.837,0.465-1.396,0.65c-1.395,0.744-2.79,1.303-3.906,1.768c-1.209,0.465-2.697,0.837-4.371,1.302
			c-0.187,0.094-0.372,0.187-0.559,0.187c-0.186,0.093-0.372,0.186-0.558,0.186c0.372,0.651,0.743,1.21,1.116,1.86
			c0.371,0.651,0.743,1.396,1.115,2.325c0.279,0.651,0.466,1.116,0.744,1.675c0.279,0.465,0.466,0.837,0.559,1.209l1.488,3.627
			v-0.093c0,0.093,0.279,0.372,0.744,0.651c0.93,0.651,1.674,1.302,2.139,1.86c0.094,0.093,0.372,0.186,0.744,0.372
			c0.372,0.093,0.838,0.279,1.303,0.372s0.93,0.278,1.488,0.372c0.465,0.093,0.93,0.093,1.209,0.093l2.139,0.372
			c1.303,0.372,2.326,0.558,3.163,0.558h0.372c0.465,0,0.93,0,1.209,0c0.372,0,0.651,0,1.023,0h1.488
			c1.581,0,2.604,0.187,3.069,0.466c0.465,0.372,0.65,0.93,0.65,1.953c0,1.302-0.186,2.046-0.465,2.418s-0.837,0.559-1.768,0.651
			l0.279-0.093c-0.186,0.093-0.372,0.093-0.465,0.093s-0.187,0-0.279,0.093l-0.558,0.093c-0.465,0.094-0.837,0.279-1.209,0.372
			c-0.372,0.094-0.651,0.187-1.023,0.187c-0.744,0.186-1.86,0.372-3.069,0.558c-1.303,0.187-2.512,0.279-3.628,0.279
			c-1.581,0-2.883-0.186-3.999-0.651c-0.372-0.186-0.744-0.372-1.209-0.558c-0.466-0.187-1.023-0.372-1.582-0.559l-1.767-0.744
			c-0.187-0.093-0.372-0.186-0.651-0.371c-0.279-0.187-0.465-0.373-0.651-0.466c-0.186-0.093-0.372-0.186-0.372-0.186
			c-0.093,0,0,0.093,0.187,0.186c-0.931-0.558-1.675-0.93-2.232-1.302c-0.559-0.372-1.116-0.744-1.488-1.116
			c-0.651-0.559-1.209-1.209-1.953-1.953c-0.651-0.744-1.396-1.581-2.14-2.604c-0.278-0.559-0.744-1.209-1.302-2.047
			c-0.279-0.371-0.559-0.743-0.837-1.115c-0.279-0.372-0.466-0.744-0.744-1.116c-0.651,1.022-1.303,1.86-1.768,2.697
			s-0.93,1.581-1.396,2.325l-0.837,1.395l0.093-0.093c-0.372,0.651-0.744,1.116-1.022,1.581c-0.279,0.466-0.465,0.744-0.651,1.023
			c-0.093,0.093-0.186,0.187-0.186,0.465c0,0.187,0,0.559,0,1.116c0,1.116-0.466,2.14-1.396,2.977
			c-0.931,0.837-2.047,1.396-3.349,1.675c-0.186,0-0.372,0.093-0.558,0.093c-0.187,0-0.372,0.093-0.466,0.093
			c-2.046,0-3.069-1.116-3.069-3.256c0-0.278,0-0.558,0.094-0.837c0.093-0.278,0.186-0.558,0.278-0.93
			c0.372-1.116,0.837-2.14,1.396-3.256c0.558-1.022,1.209-2.139,1.86-3.255c0.651-0.931,1.302-1.953,2.139-3.069
			c0.838-1.116,1.675-2.419,2.604-3.721c0.187-0.279,0.466-0.651,0.651-1.023l0.837-1.023c0,0,0-0.093,0-0.465
			c0-0.093,0.093-0.093,0.093-0.093s0.094,0,0.094-0.093c0,0-0.094-0.187-0.187-0.372c-0.651-0.744-1.022-1.675-1.022-2.512
			c0-0.558,0.093-1.116,0.278-1.674c0.187-0.559,0.559-1.023,1.023-1.581C315.515,48.1,316.724,47.542,317.934,47.542z
			 M329.56,72.376c0,0-0.093,0-0.093-0.094c0.093,0.094,0.186,0.094,0.279,0.094H329.56z"/>
		<path fill="#78A22F" d="M365.463,51.914c0.744-0.559,1.674-0.931,2.604-1.303c0.93-0.372,1.859-0.558,2.604-0.558
			c0.931,0,1.675,0.279,2.232,0.744c1.116,0.837,1.675,2.232,1.675,4.278c0.186-0.093,0.465-0.186,0.65-0.279
			c0.279-0.093,0.559-0.186,0.838-0.372v3.163c0,0.186-0.094,0.465-0.094,0.65c0,0.279-0.093,0.559-0.093,1.116
			c0,0.744,0,1.303-0.093,1.768s-0.187,0.744-0.279,1.023c-0.372,1.209-1.209,2.79-2.511,4.836
			c-0.094,0.187-0.279,0.372-0.372,0.559c-0.094,0.186-0.279,0.372-0.372,0.558c1.022,0.279,1.581,0.931,1.581,1.86
			c0,0.279-0.093,0.651-0.187,1.116c-0.186,0.465-0.372,1.023-0.744,1.675c-0.465,0.278-0.837,0.558-1.209,0.837
			c-0.651,0.65-1.302,1.116-2.046,1.488h-0.187c-0.372,0.558-1.116,0.744-2.046,0.744c-0.372,0-0.651,0-0.931,0
			c-0.186,0-0.465-0.094-0.65-0.094h-0.187c-1.395-0.558-2.139-1.395-2.139-2.511c0-0.187,0-0.465,0.093-0.744
			c0-0.279,0.186-0.559,0.372-1.023c0.186-0.465,0.558-1.302,1.023-2.511c-0.372,0.093-0.651,0.186-0.838,0.186
			c-0.186,0-0.93,0.651-2.046,2.046c-0.187,0.279-0.465,0.559-0.837,0.744c-0.372,0.187-0.744,0.279-1.209,0.279
			c0,0-0.279,0.187-0.559,0.465c-0.372,0.372-0.744,0.744-1.209,1.116c-0.559,0.465-1.209,0.837-1.86,1.209
			s-1.302,0.559-1.768,0.559c-0.093,0-0.465,0.093-0.93,0.279c-0.465,0.186-0.931,0.372-1.396,0.558c0.279,0,0.372,0,0.372,0.093
			h-1.022c-1.023,0-1.768-0.372-2.232-1.022c-0.466-0.651-0.744-1.396-0.744-2.14v-0.093c0-0.837,0.093-1.488,0.278-1.953
			c0.094-0.466,0.466-1.023,1.116-1.582l-0.093,0.094l6.511-9.302c0.279-0.465,0.837-1.023,1.488-1.767
			c0.651-0.744,1.488-1.582,2.325-2.419s1.768-1.674,2.697-2.511C363.788,53.215,364.625,52.471,365.463,51.914L365.463,51.914z
			 M364.812,59.633c-1.302,1.209-2.512,2.512-3.628,3.906c-1.116,1.396-2.231,2.884-3.255,4.372
			c0.186-0.093,0.372-0.187,0.558-0.372c0.187-0.187,0.372-0.279,0.466-0.372c0.65-0.372,1.115-0.651,1.487-1.023
			c0.094-0.558,0.279-0.93,0.559-1.209s0.837-0.465,1.581-0.559c0.093-0.186,0.187-0.371,0.372-0.465
			c0.187-0.093,0.279-0.278,0.465-0.372c0.094-0.093,0.279-0.186,0.372-0.278c0.094-0.094,0.279-0.187,0.372-0.279l-0.093,0.093
			c0.558-0.372,0.93-1.023,1.302-1.86s0.744-1.86,1.21-3.162c-0.187,0.186-0.466,0.372-0.744,0.651
			C365.463,58.982,365.091,59.261,364.812,59.633z M360.998,65.865c-0.187,0.094-0.372,0.187-0.372,0.187l-0.093,0.093
			c0.093-0.093,0.278-0.186,0.372-0.186c0.093,0,0.278-0.094,0.465-0.187L360.998,65.865z M362.207,64.75l0.093-0.094l0.094-0.093
			C362.3,64.563,362.207,64.656,362.207,64.75z M369.649,74.702c0,0.093-0.094,0.186-0.187,0.278h0.093L369.649,74.702z"/>
	</g>
</g>
</svg>
